<?xml version="1.0" encoding="utf-8"?>
<!-- Generator: Adobe Illustrator 25.2.1, SVG Export Plug-In . SVG Version: 6.00 Build 0)  -->
<svg version="1.1" id="Layer_2_1_" xmlns="http://www.w3.org/2000/svg" xmlns:xlink="http://www.w3.org/1999/xlink" x="0px" y="0px"
	 viewBox="0 0 1312 310" style="enable-background:new 0 0 1312 310;" xml:space="preserve">
<style type="text/css">
	.st0{fill:#282828;}
</style>
<path class="st0" d="M1225.4,27.3v69.5l-22.5-69.5h-33.6v154.4h33.6v-70.2l20.9,70.2h35.2V27.3H1225.4z M1102.3,126.6
	c1-13.7,3.6-35.3,7.7-64.8c2,25.7,4.1,47.4,6.1,64.8H1102.3z M1079.4,27.3l-20.5,154.4h41.5l2.4-27.8h14.4l2.2,27.8h41l-23-154.4
	H1079.4z M1021.8,56.1c1.7,1.6,2.5,5,2.5,10.3v12.7c0,5.7-0.7,9.5-2.2,11.3s-4,2.7-7.7,2.7c-0.8,0-1.8,0-3-0.1V53.7
	C1016.7,53.7,1020.1,54.5,1021.8,56.1 M971.4,181.7h40.1v-62.2h10.8c8.8,0,15.9-1.2,21.3-3.6s9.2-5.9,11.2-10.4c2-4.5,3-11.7,3-21.6
	V70.5c0-9.7-0.5-16.8-1.6-21.4c-0.9-4.4-3-8.4-6-11.8c-3-3.2-7.4-5.7-13.3-7.4c-5.9-1.7-14.3-2.6-25.2-2.6h-40.4V181.7z
	 M904.3,126.6c1-13.7,3.6-35.3,7.7-64.8c2,25.7,4.1,47.4,6.1,64.8H904.3z M881.4,27.3l-20.5,154.4h41.5l2.4-27.8h14.4l2.2,27.8h41
	l-23-154.4L881.4,27.3z M813.3,27.3v108.6c0.1,3.9-0.1,7.9-0.4,11.8c-0.2,2-1.3,3.9-2.9,5.1c-1.9,1.5-4.3,2.2-6.8,2.1
	c-1.1,0-2.8-0.1-5.2-0.3v27h20.1c8.9,0,15.6-0.7,20-2.1c4.2-1.2,7.9-3.8,10.5-7.4c2.6-3.5,4.1-7.7,4.4-12c0.3-4.4,0.5-14.4,0.5-29.8
	V27.3H813.3z M692.2,181.7h40.1v-64.8h24.8V87.5h-24.8V58.2h27.8V27.3h-68L692.2,181.7z M638.7,137.9c0,9.1-0.4,14.8-1.1,17.2
	c-0.8,2.4-2.5,3.6-5.2,3.6c-2.7,0-4.4-1.1-5.1-3.1c-0.7-2.1-1.1-7.6-1.1-16.6V67c0-7.9,0.6-12.7,1.7-14.3c1.1-1.6,2.9-2.5,4.8-2.4
	c2.5,0,4.1,1,4.9,3s1.2,6.6,1.2,13.8L638.7,137.9z M678.8,91.3c0-15.9-0.4-27-1.1-33.4c-1.7-13.4-10.5-24.8-23-29.8
	c-7.1-2.8-14.6-4.2-22.3-4c-8.7,0-16.3,1.4-22.9,4.3c-12.4,5.2-21,16.7-22.5,30c-0.7,6.4-1.1,17.4-1.1,32.9v26.4
	c0,15.9,0.4,27,1.1,33.4c1.7,13.4,10.5,24.8,23,29.8c7.1,2.8,14.7,4.2,22.3,4.1c8.7,0,16.3-1.4,22.9-4.3c12.4-5.2,21-16.7,22.5-30
	c0.7-6.4,1.1-17.4,1.1-32.9L678.8,91.3z M471.5,181.7h69.6v-30.9h-29.5v-33.9h25.1V87.5h-25.1V58.2h26.8V27.3h-66.9V181.7z
	 M456.4,67.9c0-12.3-1.2-21-3.6-26.1s-7.2-9.4-14.6-12.7c-7.3-3.4-16.2-5.1-26.6-5.1c-9.5,0-17.7,1.5-24.4,4.6
	c-6.7,3.1-11.6,7.4-14.6,12.8c-3,5.5-4.5,14.1-4.5,25.9c0,8.2,1.1,14.9,3.2,20.2c1.7,4.7,4.5,8.9,8.1,12.4c3.2,3,9.9,7.8,19.8,14.4
	c10,6.6,16.2,11.3,18.8,14c2.5,2.8,3.7,8.7,3.7,17.8c0,4.1-0.7,7.2-2,9.3c-1.3,2.1-3.6,3.3-6,3.1c-2.7,0-4.5-0.8-5.6-2.5
	c-1.1-1.7-1.6-5.4-1.6-11.1v-18.8h-37.2v10.1c0,11.6,1.2,20.5,3.5,26.8s7.3,11.5,14.9,15.6c7.6,4.1,16.8,6.1,27.5,6.1
	c9.8,0,18.4-1.8,25.7-5.3c7.4-3.5,12.3-7.9,14.9-13.1c2.6-5.2,3.9-13.3,3.9-24.3c0-15.1-2.3-26.1-7-32.9
	c-4.7-6.8-15.9-15.5-33.7-26.1c-6.2-3.7-10-6.8-11.3-9.4c-1.3-2.6-2-6.5-2.1-11.6c0-4,0.6-7,1.9-9c1.1-1.9,3.2-3.1,5.5-3
	c2.2,0,3.8,0.7,4.8,2.2s1.4,4.9,1.4,10.2V74h37.3V67.9z M316.1,27.3v113.8c0,7.7-0.4,12.6-1.1,14.6s-2.4,3.1-4.9,3.1
	c-1.9,0.2-3.8-1-4.4-2.8c-0.7-1.9-1.1-6.2-1.1-12.9V27.3h-40.1v91.3c0,17.4,0.3,28.8,1,34.3c0.7,5.6,2.8,11,6.2,15.5
	c3.5,4.9,8.8,8.9,15.8,11.9c7.7,3.2,16,4.7,24.4,4.6c8.3,0,15.6-1.3,21.7-3.9c5.9-2.4,11-6.3,14.8-11.4c3.7-5,6-9.9,6.8-14.6
	c0.8-4.7,1.1-12.9,1.1-24.6V27.3H316.1z M211.4,137.9c0,9.1-0.4,14.8-1.1,17.2c-0.8,2.4-2.5,3.6-5.3,3.6c-2.7,0-4.4-1.1-5.1-3.1
	c-0.7-2.1-1.1-7.6-1.1-16.6V67c0-7.9,0.6-12.7,1.7-14.3c1.1-1.6,2.9-2.5,4.8-2.4c2.5,0,4.1,1,4.9,3s1.2,6.6,1.2,13.8V137.9z
	 M251.6,91.3c0-15.9-0.4-27-1.1-33.4c-1.7-13.4-10.5-24.8-23-29.8c-7.1-2.8-14.6-4.2-22.3-4c-8.7,0-16.3,1.4-22.9,4.3
	c-12.4,5.2-21,16.7-22.5,30c-0.7,6.4-1.1,17.4-1.1,32.9v26.4c0,15.9,0.4,27,1.1,33.4c1.7,13.4,10.5,24.8,23,29.8
	c7.1,2.8,14.7,4.2,22.3,4.1c8.7,0,16.3-1.4,22.9-4.3c12.4-5.2,21-16.7,22.5-30c0.7-6.4,1.1-17.4,1.1-32.9L251.6,91.3z M105.2,27.3
	v55.2h-12V27.3H53v154.4h40.1v-64.8h12v64.8h40.2V27.3L105.2,27.3z"/>
<path class="st0" d="M1228,241.4v43.8h8.4v-22.9c-0.1-3.4,1-6.7,3-9.5c2-2.7,4.3-4,7-4c2.5,0,5.2,1.4,8.1,4.3l4.4-7.6
	c-3.4-3.3-6.8-5-9.9-4.9c-4.1,0-8.1,3.4-12.2,10.1l-0.5,0.8v-10L1228,241.4z M1198.4,279.9c-1.6,0.1-3.2-0.6-4.3-1.7
	c-2.3-2.5-2.2-6.4,0.1-8.9c1.8-1.5,3.8-2.8,6.1-3.5l5.6-2.2v13C1203.9,278.6,1201.2,279.8,1198.4,279.9 M1213.8,251.4
	c-0.5-2.7-1.9-5.2-3.9-7.1c-2.8-2.5-6.4-3.7-11-3.7c-6.1,0-10.8,2-14.1,6v9.5c4.3-4.9,8.8-7.3,13.4-7.3c5.1,0,7.7,2.6,7.7,7.9v2.3
	l-10.7,3.8c-3.1,1-5.9,2.8-8.2,5.2c-1.9,2-2.9,4.7-2.9,7.4c-0.1,2.8,1,5.6,3,7.6c1.9,2,4.6,3.1,7.4,3c4.2-0.1,8.2-1.6,11.4-4.3
	c0.7,2.9,2.8,4.4,6.4,4.4c1.2,0,2.5-0.2,3.6-0.7c1.6-0.7,3.1-1.6,4.6-2.6v-5.3c-2.2,1.6-3.7,2.3-4.8,2.3c-1,0-1.5-0.7-1.5-2.2v-18.6
	C1214.2,256.4,1214.1,253.9,1213.8,251.4 M1161.5,256.8c2,0.7,3.7,2,4.9,3.8c1.1,1.6,1.7,3.6,1.7,5.6c0,2-0.6,3.9-1.6,5.5
	c-1,1.7-2.5,3-4.3,3.8c-1.8,0.8-5.2,1.2-10.2,1.2h-9.1v-21.1h8.6C1156,255.6,1159.3,256,1161.5,256.8 M1162.5,236.7
	c0.1,2.8-1,5.6-3.1,7.5c-2.1,1.9-5.6,2.9-10.5,2.9h-6.1v-20h7.9C1158.5,227.1,1162.5,230.3,1162.5,236.7 M1167.6,282.6
	c3-1.5,5.6-3.7,7.4-6.5c1.7-2.7,2.6-5.9,2.5-9.1c0.1-4.1-1.4-8-4.2-11c-3-3.2-6.9-5.3-11.2-6c6.5-2.8,9.8-7.5,9.8-14
	c0.1-3.2-0.7-6.3-2.3-9c-1.6-2.7-4-4.8-6.8-6.1c-3-1.5-7.1-2.2-12.4-2.2h-16.9v66.5h21.8C1159.6,285.4,1163.8,284.5,1167.6,282.6
	 M1085.6,285.2h8.4v-43.8h-8.4L1085.6,285.2z M1086.4,224.6c-0.9,0.9-1.5,2.2-1.5,3.5c0,1.4,0.5,2.6,1.5,3.6c0.9,1,2.1,1.5,3.4,1.6
	c1.3,0,2.6-0.5,3.6-1.5c1-1,1.5-2.3,1.5-3.6c0-1.4-0.5-2.7-1.5-3.6c-0.9-1-2.2-1.5-3.6-1.5C1088.5,223,1087.2,223.6,1086.4,224.6
	 M1038.4,285.2h8.4v-31.4c1.5-1.9,3.4-3.6,5.4-4.9c1.6-1,3.4-1.5,5.2-1.5c2.4-0.1,4.6,1,6,2.9c1.6,2.2,2.4,5,2.3,7.7v27.1h8.4v-24.9
	c0-5.1-0.5-8.9-1.6-11.5c-1-2.5-2.8-4.6-5-6c-2.3-1.5-4.9-2.2-7.6-2.2c-5.2,0-9.5,2.2-13,6.6v-28.5h-8.4L1038.4,285.2z
	 M1007.6,285.1c2.2,0.6,4.5,0.9,6.7,0.8c3.8,0.2,7.5-1.1,10.5-3.5c2.7-2.1,4.2-5.4,4.1-8.8c0-5-3.5-9.6-10.6-13.7l-3-1.8
	c-1.7-0.9-3.3-2-4.8-3.3c-0.8-0.7-1.3-1.8-1.4-2.9c0-1.1,0.5-2.2,1.5-2.8c1.2-0.8,2.5-1.1,3.9-1.1c3.2,0,7.2,1.6,12.2,4.7v-8.6
	c-3.9-2.3-8.3-3.5-12.8-3.6c-3.5-0.2-7,1-9.8,3.2c-2.5,2-3.9,5-3.8,8.2c0,2.6,0.9,5.2,2.5,7.2c1.7,2.2,5.2,4.9,10.6,8
	c1.9,1,3.7,2.2,5.3,3.6c0.8,0.8,1.3,2,1.2,3.2c0,1.3-0.8,2.5-1.9,3.2c-1.3,0.9-2.9,1.4-4.5,1.3c-2.2-0.1-4.3-0.7-6.2-1.6
	c-2.6-1.1-5-2.5-7.3-4.2v9.2C1002.6,283.2,1005.1,284.3,1007.6,285.1 M990.2,285.1v-43.8h-8.4v31.3c-2.8,4-6.2,6-10.2,6
	c-3.2,0-5.4-0.9-6.7-2.7c-1.3-1.8-1.9-5-1.9-9.6v-25h-8.4v25.1c0,5.5,0.6,9.4,1.7,11.8c1.1,2.3,2.9,4.3,5.1,5.6
	c2.2,1.4,4.8,2.1,7.4,2.1c2.4,0,4.7-0.6,6.8-1.7c2.3-1.1,4.4-2.7,6.1-4.7v5.6L990.2,285.1z M936.5,268.8c0,2.4-1,4.7-2.9,6.2
	c-2,1.7-4.6,2.6-7.2,2.5c-6.5,0-12.3-3.3-17.3-9.8v12.1c4.9,3.9,11.1,6.1,17.4,6.1c5.5,0,10-1.7,13.5-5c3.5-3.4,5.4-8.1,5.2-13
	c0-7.5-3.9-13.7-11.8-18.5l-7-4.3c-2.6-1.4-4.9-3.3-6.9-5.5c-1.4-1.5-2.1-3.5-2.1-5.6c0-2.2,1.1-4.3,2.9-5.5
	c2.2-1.5,4.8-2.3,7.4-2.2c5.3,0,10.3,2.3,15,6.9v-10.8c-4.3-3.1-9.5-4.7-14.8-4.7c-5.6,0-10.2,1.6-13.7,4.9
	c-3.5,3.3-5.4,7.9-5.3,12.8c-0.1,3.3,0.9,6.5,2.8,9.2c1.9,2.7,5,5.4,9.4,8.2l7,4.4C933.8,260.9,936.6,264.7,936.5,268.8
	 M841.1,240.1c-1-1.8-1.5-3.7-1.6-5.7c0-1.7,0.7-3.4,2-4.5c3-2.5,7.3-2.4,10.2,0.1c1.3,1.3,2.1,3,2,4.9c0,3.2-1.6,5.9-4.9,8.3
	l-3.5,2.6C843.7,244.1,842.2,242.2,841.1,240.1 M845.6,275.4c-1.8,0.9-3.8,1.4-5.8,1.5c-2.1,0.1-4.1-0.7-5.7-2
	c-1.5-1.2-2.3-2.9-2.3-4.8c0-3.4,2.4-6.8,7.2-10.1l4.1-3l10.5,12.5l-2.1,2C849.7,273.1,847.7,274.4,845.6,275.4 M878.4,285.2
	l-13.1-15.6c4.5-5.2,8-11.1,10.5-17.4h-9.2c-1.8,3.9-4.1,7.5-6.9,10.7l-9.1-10.7l0.7-0.5c7.5-5.5,11.3-11.2,11.3-17
	c0.1-4-1.5-7.9-4.5-10.5c-3.2-2.8-7.3-4.3-11.5-4.1c-4.8,0-8.6,1.4-11.6,4.2c-3,2.9-4.6,6.9-4.5,11c0,4.9,2.4,10.1,7.3,15.4
	c-1.8,1.1-3.6,2.3-5.2,3.6l-0.1,0.1c-2.9,2.1-5.5,4.7-7.4,7.7c-1.5,2.5-2.3,5.5-2.3,8.4c-0.1,4.2,1.6,8.2,4.7,11
	c3,3,7.1,4.6,11.3,4.5c3.1-0.1,6.2-0.7,9.1-2c2.9-1.2,5.7-2.8,8.1-4.8l0.1-0.1c1.2-0.9,2.3-1.9,3.3-2.9l7.5,9.1L878.4,285.2z
	 M764.6,250.9c2-1.9,4.6-2.9,7.4-2.8c2.7-0.1,5.3,0.9,7.2,2.8c1.8,1.9,2.8,4.5,3,8h-21.3C761.2,255.9,762.5,253.1,764.6,250.9
	 M790.5,263c0-6.8-1.7-12.3-5-16.3c-3.3-4.1-8.3-6.3-13.5-6.1c-5.4-0.2-10.7,2.1-14.2,6.3c-3.7,4.2-5.5,9.6-5.5,16.2
	c-0.1,4.1,0.8,8.1,2.6,11.7c1.6,3.2,4,6,6.9,8.1c2.9,2,6.7,3,11.3,3c3,0.1,6-0.3,8.9-1.1c2.7-0.9,5.3-2.2,7.7-3.8v-8.5
	c-4.4,3.4-9.7,5.3-15.3,5.3c-3.6,0.1-7.1-1.2-9.7-3.7c-2.6-2.7-4.1-6.3-4.1-10h29.8L790.5,263z M724.1,285.1
	c2.2,0.6,4.5,0.9,6.7,0.8c3.8,0.2,7.5-1.1,10.5-3.5c2.7-2.1,4.2-5.4,4.1-8.8c0-5-3.5-9.6-10.6-13.7l-3-1.8c-1.7-0.9-3.3-2-4.8-3.3
	c-0.8-0.7-1.3-1.8-1.4-2.9c0-1.1,0.5-2.2,1.5-2.8c1.2-0.8,2.5-1.1,3.9-1.1c3.2,0,7.2,1.6,12.2,4.7v-8.6c-3.9-2.3-8.3-3.5-12.8-3.6
	c-3.5-0.2-7,1-9.8,3.2c-2.5,2-3.9,5.1-3.8,8.3c0,2.6,0.9,5.2,2.5,7.2c1.7,2.2,5.2,4.9,10.6,8c1.9,1,3.7,2.2,5.3,3.6
	c0.8,0.8,1.3,2,1.2,3.2c0,1.3-0.8,2.5-1.9,3.2c-1.3,0.9-2.9,1.4-4.5,1.3c-2.2-0.1-4.3-0.7-6.2-1.6c-2.6-1.1-5-2.5-7.3-4.2v9.2
	C719.1,283.2,721.6,284.3,724.1,285.1 M706.7,285.1v-43.8h-8.4v31.3c-2.8,4-6.2,6-10.2,6c-3.2,0-5.4-0.9-6.7-2.7s-1.9-5-1.9-9.6v-25
	h-8.4v25.1c0,5.5,0.6,9.4,1.7,11.8c1.1,2.3,2.9,4.3,5.1,5.6c2.2,1.4,4.8,2.1,7.4,2.1c2.4,0,4.7-0.6,6.8-1.7c2.3-1.1,4.4-2.7,6.1-4.7
	v5.6L706.7,285.1z M649.7,253.1c5.4,5.8,5.5,14.8,0.2,20.6c-2.7,2.7-6.3,4.1-10.1,4c-7.5,0.3-13.8-5.5-14.2-13c0-0.4,0-0.8,0-1.2
	c-0.1-3.8,1.3-7.6,3.9-10.4c2.6-2.7,6.2-4.2,9.9-4.1C643.2,248.9,647,250.4,649.7,253.1 M623.6,247.6c-8.8,8.6-9,22.7-0.5,31.5
	c4.3,4.4,10.2,6.8,16.3,6.7c6.1,0.2,12-2.1,16.3-6.3c4.3-4.1,6.7-9.8,6.5-15.7c0.2-6.1-2.1-11.9-6.4-16.2
	c-4.2-4.3-10.1-6.6-16.1-6.4C633.8,241,627.9,243.4,623.6,247.6 M572.4,285.2h8.4v-31.4c1.5-1.9,3.4-3.6,5.4-4.9
	c1.6-1,3.4-1.5,5.2-1.5c2.4-0.1,4.6,1,6,2.9c1.6,2.2,2.4,5,2.3,7.7v27.1h8.4v-24.9c0-5.1-0.5-8.9-1.6-11.5c-1-2.5-2.8-4.5-5-6
	c-2.3-1.5-4.9-2.2-7.6-2.2c-5.2,0-9.5,2.2-13,6.6v-28.5h-8.4V285.2z M526,285.2h8.4v-66.5H526L526,285.2z M534.8,262.8l21.2,22.3
	h11.2l-21.8-22.4l18.1-21.4h-10L534.8,262.8z M496.7,279.9c-1.6,0.1-3.2-0.6-4.4-1.7c-2.3-2.5-2.2-6.4,0.1-8.9
	c1.8-1.5,3.8-2.7,6.1-3.5l5.6-2.2v13C502.2,278.6,499.5,279.8,496.7,279.9 M512,251.4c-0.5-2.7-1.9-5.2-3.9-7.1
	c-2.8-2.5-6.4-3.7-11-3.7c-6.1,0-10.8,2-14,6v9.5c4.3-4.9,8.8-7.3,13.4-7.3c5.1,0,7.7,2.6,7.6,7.9v2.3l-10.7,3.8
	c-3.1,1-5.9,2.8-8.2,5.2c-1.9,2-2.9,4.7-2.9,7.4c-0.1,2.8,1,5.6,3,7.6c1.9,2,4.6,3.1,7.4,3c4.2-0.1,8.2-1.6,11.4-4.3
	c0.7,2.9,2.8,4.4,6.4,4.4c1.2,0,2.5-0.2,3.6-0.7c1.6-0.7,3.1-1.6,4.6-2.6v-5.3c-2.1,1.6-3.7,2.3-4.8,2.3s-1.5-0.7-1.5-2.2v-18.6
	C512.4,256.4,512.3,253.9,512,251.4 M449.5,250.9c2-1.9,4.6-2.9,7.4-2.8c2.7-0.1,5.3,0.9,7.2,2.8c1.8,1.9,2.8,4.5,3,8h-21.3
	C446.1,255.9,447.4,253.1,449.5,250.9 M475.4,263c0-6.8-1.7-12.3-5-16.3c-3.3-4-8.3-6.3-13.5-6.1c-5.4-0.2-10.7,2.1-14.2,6.3
	c-3.7,4.2-5.5,9.6-5.5,16.2c-0.1,4.1,0.8,8.1,2.6,11.7c1.6,3.2,4,6,6.9,8.1c2.9,2,6.7,3,11.3,3c3,0.1,6-0.3,8.9-1.1
	c2.7-0.9,5.3-2.2,7.7-3.8v-8.5c-4.4,3.4-9.7,5.3-15.3,5.3c-3.6,0.1-7.1-1.2-9.7-3.7c-2.6-2.7-4.1-6.3-4.1-10h29.8L475.4,263z
	 M401.5,249.2h7.4v19.4c-0.1,2.7,0.1,5.4,0.5,8.1c0.3,1.2,0.7,2.4,1.3,3.4c0.5,0.9,1.2,1.7,2,2.4c2.6,2.3,6.1,3.6,9.6,3.5
	c3.7,0,7.3-0.9,10.5-2.8V275c-2.8,1.9-6.1,3-9.5,3.1c-4,0-6-2.5-6-7.5v-21.4h13.4v-7.8h-13.4v-9l-15.8,16V249.2z M389.9,268.8
	c0,2.4-1,4.7-2.9,6.2c-2,1.7-4.6,2.6-7.2,2.5c-6.5,0-12.3-3.3-17.3-9.8v12.1c4.9,3.9,11.1,6.1,17.4,6.1c5.5,0,10-1.7,13.5-5
	c3.5-3.4,5.4-8.1,5.2-13c0-7.5-3.9-13.7-11.8-18.5l-7-4.3c-2.6-1.4-4.9-3.3-6.9-5.5c-1.4-1.5-2.1-3.5-2.1-5.6c0-2.2,1.1-4.3,2.9-5.5
	c2.2-1.5,4.8-2.3,7.4-2.2c5.3,0,10.3,2.3,15,6.9v-10.8c-4.3-3.1-9.5-4.7-14.8-4.7c-5.6,0-10.2,1.6-13.7,4.9
	c-3.5,3.3-5.4,7.9-5.3,12.8c-0.1,3.3,0.9,6.5,2.8,9.2c1.9,2.7,5,5.4,9.4,8.2l7,4.4C387.2,260.9,390,264.8,389.9,268.8 M317.7,285.2
	h8.3v-43.8h-8.4L317.7,285.2z M318.4,224.5c-0.9,0.9-1.5,2.2-1.5,3.5c0,1.3,0.5,2.6,1.5,3.6c0.9,1,2.1,1.5,3.4,1.6
	c1.3,0,2.6-0.5,3.5-1.5c1-1,1.5-2.3,1.5-3.6c0-1.4-0.5-2.7-1.5-3.6c-0.9-1-2.2-1.5-3.5-1.5C320.5,223,319.3,223.5,318.4,224.5
	 M270.4,285.2h8.4v-31.4c1.5-1.9,3.4-3.6,5.4-4.9c1.6-1,3.4-1.5,5.2-1.5c2.4-0.1,4.6,1,6,2.9c1.6,2.2,2.4,5,2.3,7.7v27.1h8.4v-24.9
	c0-5.1-0.5-8.9-1.6-11.5c-1-2.5-2.8-4.6-5-6c-2.3-1.5-4.9-2.2-7.6-2.2c-5.2,0-9.5,2.2-13,6.6v-28.5h-8.4L270.4,285.2z M249.8,277.8
	c-4.5,0-8-1.3-10.6-4c-2.6-2.6-3.9-6.2-3.9-10.7c-0.1-3.8,1.2-7.6,3.6-10.5c2.3-2.7,5.7-4.2,9.3-4.1c3.6,0,7.6,1.4,11.8,4.2v-9.2
	c-2.1-1-4.2-1.8-6.4-2.4c-1.9-0.4-3.9-0.7-5.9-0.6c-6.3,0-11.3,2.1-15.2,6.3s-5.8,9.8-5.8,16.7c0,6.8,2,12.3,5.9,16.3
	s9.2,6.1,15.9,6.1c4.2,0,8.4-0.9,12.4-2.4v-8.6C257.5,276.7,253.7,277.7,249.8,277.8 M200.4,279.9c-1.6,0.1-3.2-0.6-4.4-1.7
	c-2.3-2.5-2.2-6.4,0.1-8.9c1.8-1.5,3.8-2.7,6.1-3.5l5.6-2.2v13C205.9,278.6,203.2,279.8,200.4,279.9 M215.8,251.4
	c-0.5-2.7-1.9-5.2-3.9-7.1c-2.8-2.5-6.4-3.7-11-3.7c-6.1,0-10.8,2-14.1,6v9.5c4.3-4.9,8.8-7.3,13.4-7.3c5.1,0,7.6,2.6,7.6,7.9v2.3
	l-10.9,3.8c-3.1,1-5.9,2.8-8.2,5.2c-1.9,2-2.9,4.7-2.9,7.4c-0.1,2.8,1,5.6,2.9,7.6c1.9,2,4.6,3.1,7.4,3c4.2-0.1,8.2-1.6,11.4-4.3
	c0.7,2.9,2.8,4.4,6.4,4.4c1.2,0,2.5-0.2,3.6-0.7c1.6-0.7,3.1-1.6,4.6-2.6v-5.3c-2.1,1.6-3.7,2.3-4.8,2.3c-1,0-1.5-0.7-1.5-2.2v-18.6
	C216.1,256.4,216,253.9,215.8,251.4 M159.1,248.5c3.4-0.1,6.5,1.4,8.6,4.1c2.2,2.7,3.3,6.3,3.3,10.6c0.2,3.8-1.1,7.6-3.5,10.5
	c-2.2,2.7-5.6,4.2-9.1,4.1c-3,0-6-0.4-8.8-1.3v-23.7C152.8,250,156,248.5,159.1,248.5 M141.2,282.8c2.3,1.1,4.7,1.9,7.2,2.3
	c2.8,0.6,5.7,0.9,8.6,0.9c6.8,0,12.3-2.1,16.3-6.3c4.1-4.2,6.1-9.8,6.1-16.8c0-6.6-1.7-11.9-5.1-16.1c-3.2-4.1-8-6.4-13.2-6.3
	c-4.2,0-8.3,1.5-11.6,4.1v-25.9h-8.4L141.2,282.8z M121.2,285.2h8.4v-43.8h-8.4V285.2z M121.9,224.5c-0.9,0.9-1.5,2.2-1.5,3.5
	c0,1.3,0.5,2.6,1.5,3.6c0.9,1,2.1,1.5,3.4,1.6c1.3,0,2.6-0.5,3.5-1.5c1-1,1.5-2.3,1.5-3.6c0-1.4-0.5-2.7-1.5-3.6
	c-0.9-1-2.2-1.5-3.6-1.5C124,223,122.8,223.6,121.9,224.5 M98.4,247.4H62.2v-28.8H53v66.5h9.2v-28.9h36.2v28.9h9.2v-66.5h-9.2V247.4
	z"/>
</svg>
