<svg id="Layer_2" data-name="Layer 2" xmlns="http://www.w3.org/2000/svg" viewBox="0 0 420 420"><defs><style>.cls-1{fill:#ed1c27;}</style></defs><title>Website Icons Logo Trans</title><path class="cls-1" d="M358.5,254.5c-1-7-4-22-10-26s-29-13-35-13-26-1-34,1-36,11-42,14-16,7-21,9-21,14-29,13-15-9-14-16,3-28,0-30-9,6-12,9-9,9-12,6-1-10,2-13,19-15,19-20-28-29-33-32-8-5-14-4-14,2-22,10-29,26-34,31-8,16-7,19,5,12,21,16c16.26,4.07,17,7,18,10a15.82,15.82,0,0,1-4,15c-5,5-18,16-22,20s-12,11-13,17,2,16,6,18,7,2,14,2,17-7,20-7,5,7,5,11-1,2,2,10,13,14,19,14,19-6,20-13-1-44,1-50,7-13,10-16,5-7,7-5,3,19,3,25,6,34,10,40,22,20,30,23,25,7,34,6,17-3,22-6,7-2,10,1,10,11,15,13,19,1,24-1,16-18,20-25,20-36,22-42S359.5,261.5,358.5,254.5Zm-123,67c-3,0-11.88,3-16,3s-8,0-8-4-4-26-4-32-2-11,0-13c4-4,9-5,14-9s13.5-10.21,14-6c2,17,0,16-3,17s-10,0-14,4-6,9-4,13,7,10,11,11,8-1,11,4S238.5,321.5,235.5,321.5Zm81-45c-3.41,10.2-14.65,22.32-21,31-1.48,2-7.5,9.89-10,10-3.36.15-8-4.78-9-8s.42-10.11,2-13c4.16-7.62,26.66-14.35,26-23-.7-9.2-26-12.26-31-20-1.79-2.76-2-8.41,0-11,7.13-9.08,35.92-4,42-4C318.5,238.5,319.67,267,316.5,276.5Z"/><path class="cls-1" d="M111.5,75.5c2.46-4.06,14.58-1.74,19,0,10.93,4.32,36.7,12.06,41,23,2.69,6.84-2.75,24.13-9,28-7.09,4.39-26.75.53-33-5-4.86-4.3-3.9-19.3-7-25C119.67,91.29,108.43,80.57,111.5,75.5Z"/><path class="cls-1" d="M318.5,88.5c-4.37-7.53-18-18-29-20s-31.14.85-42,3c-12.08,2.39-41.3,11.81-43,24-.39,2.8,5.64,6.44,8,8,2.55,1.68,6.64,7,7,10,2,17,2,21-3,40-1.45,5.52-18.36,4.53-20,10-3,10-3,34,0,46,.9,3.58,9.42,6.1,13,7,7.51,1.89,23.39,1.47,31,0,10.58-2,25-9,40-14,4.2-1.4,4.81-13.15,7-17,4.72-8.3,27-11,27-31,0-6.73-12-16-21-19-3.59-1.2-11.24-2.37-15-2-10,1-28.1,11.35-38,13-2.47.41-8.64,2.1-10,0-2.68-4.13,4.2-14.86,8-18,5.94-4.91,22.72-4.48,30-7,3.91-1.35,11-6,15-7,9.47-2.36,30.88,1.61,37-6C324.31,103.76,321.55,93.76,318.5,88.5Zm-80,84c4.27-2.79,16.06-7.23,20-4,1.35,1.11.52,5.33,0,7-1.18,3.77-4.3,10.11-7,13-2.18,2.34-8.8,8-12,8-3,0-7.57-6-8-9C230.9,183.41,235,174.77,238.5,172.5Z"/><path class="cls-1" d="M210,410.09C99.67,410.09,9.91,320.33,9.91,210S99.67,9.91,210,9.91,410.09,99.67,410.09,210,320.33,410.09,210,410.09Zm0-393C103.63,17.09,17.09,103.63,17.09,210S103.63,402.91,210,402.91,402.91,316.37,402.91,210,316.37,17.09,210,17.09Z"/></svg>